<?xml version="1.0" encoding="UTF-8" standalone="no"?>
<!-- Created with Inkscape (http://www.inkscape.org/) -->

<svg
   version="1.1"
   id="svg1186"
   width="800"
   height="800"
   viewBox="0 0 800 800"
   sodipodi:docname="bull-animal-publicdomainvectors.org.svg"
   inkscape:version="1.2 (dc2aedaf03, 2022-05-15)"
   xmlns:inkscape="http://www.inkscape.org/namespaces/inkscape"
   xmlns:sodipodi="http://sodipodi.sourceforge.net/DTD/sodipodi-0.dtd"
   xmlns="http://www.w3.org/2000/svg"
   xmlns:svg="http://www.w3.org/2000/svg">
  <defs
     id="defs1190">
    <clipPath
       clipPathUnits="userSpaceOnUse"
       id="clipPath1202">
      <path
         d="M 0,600 H 600 V 0 H 0 Z"
         id="path1200" />
    </clipPath>
  </defs>
  <sodipodi:namedview
     id="namedview1188"
     pagecolor="#ffffff"
     bordercolor="#000000"
     borderopacity="0.25"
     inkscape:showpageshadow="2"
     inkscape:pageopacity="0.0"
     inkscape:pagecheckerboard="0"
     inkscape:deskcolor="#d1d1d1"
     showgrid="false"
     inkscape:zoom="1.04625"
     inkscape:cx="400"
     inkscape:cy="400.4779"
     inkscape:window-width="1920"
     inkscape:window-height="1017"
     inkscape:window-x="-8"
     inkscape:window-y="-8"
     inkscape:window-maximized="1"
     inkscape:current-layer="g1194">
    <inkscape:page
       x="0"
       y="0"
       id="page1192"
       width="800"
       height="800" />
  </sodipodi:namedview>
  <g
     id="g1194"
     inkscape:groupmode="layer"
     inkscape:label="Page 1"
     transform="matrix(1.3333333,0,0,-1.3333333,0,800)">
    <g
       id="g1196">
      <g
         id="g1198"
         clip-path="url(#clipPath1202)">
        <g
           id="g1204"
           transform="translate(67.6318,423.3354)">
          <path
             d="m 0,0 c 1.208,-2.253 2.708,-4.527 4.583,-6.951 2.963,-3.811 6.443,-7.522 11.279,-12.031 4.385,-4.074 8.892,-7.828 12.329,-10.643 3.146,-2.574 6.348,-5.125 9.444,-7.593 0.677,-0.541 4.633,-3.517 0.891,-6.523 -0.478,-0.384 -1.01,-0.696 -1.514,-1.047 -1.195,-0.828 -2.384,-1.666 -3.554,-2.531 -2.354,-1.75 -4.89,-3.748 -7.462,-6.473 -2.983,-3.193 -5.035,-6.367 -6.451,-9.988 -0.093,-0.239 0.045,-0.641 0.356,-1.068 l 6.555,-1.716 c 0,0 1.631,-2.554 6.172,-4.136 4.541,-1.58 13.048,-0.898 13.048,-0.898 0.077,0.477 0.234,1.023 0.527,1.596 0.625,1.296 1.801,2.991 3.483,5.009 0.902,1.094 1.921,2.243 2.999,3.459 0.748,0.844 1.538,1.735 2.364,2.692 0.938,1.092 2.037,2.392 3.192,3.972 1.07,1.489 2.307,3.299 3.383,5.892 0.613,1.513 1.006,2.993 1.199,4.514 0.234,1.787 0.141,3.703 -0.26,5.401 -0.369,1.601 -1.032,3.193 -1.918,4.612 -0.716,1.146 -1.555,2.192 -2.494,3.11 -1.765,1.746 -3.427,2.786 -4.847,3.624 -0.385,0.228 -0.757,0.427 -1.127,0.619 l -0.988,0.494 -5.373,2.538 c -3.544,1.669 -7.209,3.395 -10.757,5.12 -5.71,2.782 -9.98,5 -13.846,7.192 -5.305,3.015 -9.379,5.707 -12.821,8.471 -4.843,3.926 -7.945,7.581 -9.769,11.506 -0.966,2.096 -1.518,4.259 -1.645,6.448 -0.386,-2.199 -0.345,-4.556 0.126,-6.89 C -2.405,5.302 -1.431,2.686 0,0 m 404.147,-117.789 c -1.068,16.399 -9.127,15.697 -31.521,34.356 -7.442,6.201 4.34,-13.905 2.493,-19.769 -7.836,-24.873 -30.099,9.797 -33.837,-4.629 -3.74,-14.425 21.002,-7.658 23.918,-18.876 2.917,-11.221 -7.802,-8.511 -14.479,-31.792 -3.007,-10.48 17.274,-19.849 -18.433,-22.319 -7.65,-0.529 -10.238,-2.762 1.068,-3.325 21.906,-1.091 40.525,9.399 38.202,28.315 -6.596,53.696 33.658,21.64 32.589,38.039 m -92.057,16.529 c -6.46,10.357 -1.07,-10.985 -19.234,-31.404 -13.037,-14.655 -25.638,-22.099 -50.86,-11.718 -14.952,6.153 -20.194,36.588 -25.897,52.8 -6.055,17.214 3.289,-19.829 -24.577,-45.474 -16.985,-15.632 -13.535,-28.851 1.425,-13.357 14.96,15.495 37.396,9.101 62.851,-7.283 30.426,-19.584 -25.73,-28.12 -15.672,-32.864 9.269,-4.373 54.452,6.471 52.73,11.831 -9.276,28.869 32.885,55.583 19.234,77.469 m -129.48,-156.24 -7.612,21.407 c -1.311,3.542 -2.801,7.038 -4.319,10.542 -0.76,1.751 -1.53,3.505 -2.388,5.222 -0.843,1.727 -1.81,3.403 -2.756,5.08 -1.985,3.458 -4.443,6.415 -6.747,9.474 -2.324,3.043 -4.45,6.303 -6.92,9.244 -1.237,1.468 -2.562,2.841 -3.944,4.151 -1.368,1.322 -2.769,2.601 -4.178,3.862 l -4.231,3.738 c -1.358,1.274 -2.832,2.463 -3.793,4.016 l -0.413,-0.108 c 0.083,-1.037 0.506,-1.994 0.951,-2.877 0.471,-0.874 0.973,-1.735 1.54,-2.526 1.098,-1.622 2.329,-3.112 3.57,-4.575 1.254,-1.451 2.547,-2.854 3.865,-4.219 1.306,-1.379 2.662,-2.696 4.08,-3.95 2.823,-2.51 5.914,-4.789 8.407,-7.63 2.478,-2.824 4.568,-6.057 5.679,-9.561 l 1.713,-5.411 c 0.573,-1.801 1.192,-3.587 1.795,-5.382 1.214,-3.588 2.382,-7.214 3.837,-10.752 2.959,-7.032 6.483,-14.023 11.494,-19.956 z m -35.19,34.024 c 0,0.034 0.004,0.057 -0.003,0.105 -0.003,0.025 0,0.035 -0.018,0.088 -0.004,0.018 -0.025,0.111 -0.172,0.192 -0.131,0.054 -0.284,-0.013 -0.286,-0.025 -0.05,-0.029 -0.065,-0.046 -0.081,-0.057 l -0.08,-0.076 -0.114,-0.117 -0.209,-0.214 c -0.276,-0.276 -0.571,-0.523 -0.875,-0.758 -0.61,-0.468 -1.281,-0.849 -1.977,-1.176 -1.388,-0.662 -2.891,-1.071 -4.405,-1.386 -3.05,-0.588 -6.193,-0.721 -9.333,-0.645 -6.262,0.179 -12.659,1.054 -18.743,2.313 -1.512,0.324 -3.013,0.684 -4.436,1.142 -1.43,0.452 -2.815,0.957 -4.042,1.646 -1.239,0.676 -2.327,1.494 -3.252,2.503 -0.929,1.007 -1.697,2.227 -2.408,3.585 -1.413,2.72 -2.794,5.854 -4.755,8.59 -0.96,1.382 -2.029,2.679 -3.142,3.917 -1.149,1.206 -2.313,2.383 -3.559,3.458 -1.216,1.107 -2.493,2.135 -3.78,3.137 -1.299,1.023 -2.552,1.939 -3.702,3.048 -2.311,2.173 -4.274,4.704 -5.893,7.425 -3.264,5.464 -5.2,11.537 -7.585,17.525 -1.188,3.003 -2.462,6.015 -4.002,8.968 -1.534,2.945 -3.409,5.84 -5.915,8.271 -1.263,1.196 -2.696,2.241 -4.25,3.048 -1.549,0.818 -3.239,1.32 -4.917,1.631 -3.385,0.575 -6.754,0.207 -9.9,-0.638 l 0.063,-0.423 c 3.222,0.08 6.431,-0.077 9.343,-1.012 2.914,-0.906 5.446,-2.564 7.403,-4.812 2.013,-2.205 3.502,-4.919 4.862,-7.727 1.353,-2.819 2.521,-5.789 3.791,-8.754 2.5,-5.937 5.546,-11.876 9.515,-17.147 1.979,-2.634 4.167,-5.105 6.601,-7.312 1.201,-1.105 2.528,-2.136 3.742,-3.138 0.63,-0.49 1.217,-1.032 1.79,-1.583 0.588,-0.537 1.15,-1.098 1.686,-1.683 2.181,-2.308 3.969,-4.926 5.386,-7.683 1.41,-2.787 2.403,-5.685 3.751,-8.795 0.697,-1.54 1.554,-3.141 2.732,-4.585 1.166,-1.452 2.64,-2.669 4.194,-3.603 1.557,-0.948 3.182,-1.665 4.823,-2.195 1.635,-0.576 3.287,-0.946 4.93,-1.29 3.298,-0.634 6.573,-0.962 9.855,-1.157 3.284,-0.209 6.593,-0.244 9.905,0.006 3.304,0.258 6.634,0.774 9.818,1.894 1.59,0.555 3.136,1.291 4.535,2.262 0.695,0.49 1.345,1.052 1.915,1.688 0.285,0.316 0.54,0.661 0.769,1.015 l 0.04,0.064 h 0.341 l 0.033,0.305 z m -41.914,60.259 c 7.836,10.508 -22.812,36.982 -4.112,43.097 15.064,4.926 29.433,6.37 28.333,17.276 -1.959,19.411 12.937,57.03 -1.959,27.96 -18.344,-35.796 -32.073,-21.549 -38.307,-32.236 -6.232,-10.684 16.351,-50.932 -9.956,-41.672 -10.313,3.629 18.165,-24.932 26.001,-14.425 m 30.009,21.866 c 3.367,-2.187 18.326,-5.56 22.066,0 3.74,5.559 -0.394,11.94 -2.671,19.245 -4.529,14.529 -18.524,28.572 -12.823,18.904 6.144,-10.418 4.541,-20.836 0,-24.308 -4.541,-3.472 -9.938,-11.654 -6.572,-13.841 M 21.431,-92.337 c -1.069,-0.891 -3.918,0.246 -7.836,0.067 -3.918,-0.178 -3.936,-2.59 -8.282,-6.211 -1.068,-0.89 0.143,-2.265 1.581,-1.359 3.09,1.949 4.377,0.173 6.335,0.173 1.959,0 9.271,8.221 8.202,7.33 m -42.568,-44.87 c -0.146,1.134 -0.835,2.003 -1.942,2.443 -1.703,0.677 -4.099,0.22 -5.695,-1.089 l 0.678,-0.826 c 1.292,1.059 3.28,1.456 4.623,0.923 0.75,-0.299 1.179,-0.832 1.276,-1.588 0.301,-2.354 -3.031,-3.819 -3.065,-3.833 l 0.422,-0.984 c 0.168,0.074 4.106,1.799 3.703,4.954 m 494.918,-52.094 c -2.39,0.937 -4.745,2.113 -6.736,3.816 -0.549,0.47 -1.052,0.99 -1.512,1.547 0.037,-0.601 0.102,-1.196 0.233,-1.775 0.267,-0.954 0.793,-1.773 1.603,-2.252 0.799,-0.499 1.808,-0.684 2.778,-0.887 1.188,-0.199 2.407,-0.327 3.634,-0.449 m 13.808,-12.996 c -0.307,-2.754 -1.424,-5.288 -2.803,-7.53 -1.399,-2.238 -3.061,-4.252 -4.837,-6.112 -3.559,-3.659 -7.505,-7.074 -12.294,-9.507 -2.38,-1.219 -4.998,-2.137 -7.782,-2.559 -2.78,-0.394 -5.736,-0.259 -8.508,0.59 -2.78,0.818 -5.336,2.266 -7.509,4.056 -2.194,1.78 -4.018,3.899 -5.586,6.143 -3.093,4.523 -5.134,9.58 -6.324,14.848 -1.129,5.283 -1.573,10.824 -0.088,16.652 0.392,1.454 0.933,2.926 1.72,4.375 0.202,0.361 0.397,0.721 0.639,1.077 l 0.621,0.922 1.025,1.498 c 1.349,1.994 2.621,3.996 3.792,6.031 4.685,8.094 7.703,16.951 7.088,25.424 -0.449,7.435 -3.726,14.331 -8.675,20.255 -0.115,-4.646 -0.948,-8.118 -2.398,-10.133 -3.003,-4.17 -9.177,-20.706 -18.88,-36.104 -3.524,-15.831 -5.691,-43.737 -2.744,-50.239 3.798,-8.38 3.498,-15.594 -2.404,-31.889 -5.903,-16.295 -0.219,-33.518 0.52,-44.512 0.573,-8.533 2.939,-12.556 1.335,-15.494 -1.602,-2.939 -3.205,-2.137 -4.808,-3.473 -1.603,-1.336 5.61,-13.624 0,-17.986 -5.61,-4.363 -22.365,-1.398 -24.769,-0.417 -2.404,0.98 2.725,9.187 4.333,11.591 1.606,2.405 5.806,8.282 7.213,11.487 1.407,3.206 -0.668,23.641 0.134,38.6 0.8,14.959 -5.611,17.644 -6.679,24.857 6.144,0 8.549,-2.138 5.075,10.94 -0.516,1.945 -2.658,6.122 -4.639,11.577 1.08,-7.292 3.295,-18.881 1.166,-17.72 -2.938,1.602 -13.624,-24.043 -16.829,-29.118 -3.206,-5.077 -12.288,-26.981 -12.288,-33.125 0,-6.145 -0.534,-9.884 -2.344,-12.289 -1.811,-2.404 -1.044,-0.884 -4.785,-0.884 -3.739,0 2.387,-13.942 -5.36,-15.544 -13.331,-2.759 -25.044,-0.074 -25.578,1.87 -0.534,1.942 11.559,15.028 11.559,15.028 0,0 -0.206,0.865 0.329,3.003 0.534,2.137 5.61,4.541 7.212,8.816 1.603,4.274 12.823,25.11 15.495,33.659 2.67,8.549 0.266,28.584 -3.741,40.338 -4.006,11.754 -0.534,23.774 -7.213,30.185 -6.678,6.412 -22.439,-6.589 -28.85,-9.082 -6.411,-2.493 -21.371,-18.521 -23.508,-21.371 -2.137,-2.85 0,2.493 -11.754,3.206 -11.754,0.712 -17.098,15.316 -22.439,12.466 -5.343,-2.85 -64.825,-2.493 -67.675,-2.493 -2.849,0 1.069,-18.165 3.561,-25.289 2.495,-7.123 1.782,-22.795 1.782,-28.138 0,-5.343 11.754,-26.002 11.754,-26.002 l -3.562,-8.904 c -3.561,-8.905 4.274,-19.947 0.712,-21.727 -3.563,-1.781 -22.973,-0.89 -23.686,0.178 -0.712,1.068 5.521,13.179 5.521,13.179 0,0 3.707,2.67 3.384,5.877 -0.325,3.206 -1.603,8.103 -1.603,22.083 0,6.451 -10.329,21.371 -13.535,24.22 -3.206,2.85 -12.466,26.892 -12.466,26.892 -1.069,-2.316 -1.959,-20.837 -6.946,-31.878 -4.985,-11.042 -1.78,-39.002 -1.603,-40.783 0.179,-1.782 0.891,-4.809 -3.739,-4.452 -4.631,0.356 0,-10.686 -2.761,-12.734 -11.487,-2.672 -25.378,0.802 -25.378,2.137 0,1.336 4.141,7.347 4.141,8.281 0,0.936 6.545,7.347 7.613,9.083 1.069,1.736 -0.534,1.87 0.535,3.205 1.068,1.336 9.349,19.235 5.342,25.378 -4.007,6.145 -9.752,29.181 -10.554,38.53 12.697,2.473 28.719,8.752 27.919,10.357 -0.802,1.602 -24.043,-8.015 -40.338,-7.124 -16.296,0.891 -27.783,14.87 -38.201,19.546 -16.226,7.28 -15.227,27.781 -20.836,31.521 -5.61,3.74 5.209,17.496 -22.039,20.169 -27.248,2.671 -22.573,11.487 -25.245,12.755 -2.671,1.268 -6.945,0.957 -10.507,2.205 -3.562,1.246 -6.233,-0.18 -8.192,-1.781 -0.611,-0.499 -2.086,-0.516 -3.896,-0.268 0.99,0.857 1.802,1.801 2.63,2.627 0.923,0.936 1.914,1.72 3.088,2.172 1.17,0.457 2.467,0.606 3.781,0.593 0.674,-0.03 1.284,-0.121 2.019,-0.149 0.792,-0.082 1.578,0.181 2.209,0.574 1.255,0.823 2.035,1.995 2.887,3.052 0.838,1.069 1.682,2.145 2.805,2.878 0.266,0.207 0.592,0.296 0.888,0.454 0.314,0.105 0.646,0.167 0.974,0.235 0.334,-0.008 0.675,0.015 1.011,-0.018 l 0.999,-0.218 -0.989,0.285 c -0.336,0.056 -0.685,0.054 -1.031,0.085 -0.34,-0.048 -0.691,-0.09 -1.027,-0.178 -0.317,-0.142 -0.671,-0.22 -0.961,-0.415 -1.227,-0.691 -2.17,-1.751 -3.079,-2.766 -0.911,-1.004 -1.788,-2.095 -2.885,-2.705 -0.28,-0.12 -0.548,-0.283 -0.842,-0.305 -0.283,-0.093 -0.575,-0.053 -0.862,-0.031 -0.626,0.062 -1.366,0.216 -2.052,0.287 -1.411,0.108 -2.879,0.049 -4.296,-0.401 -1.423,-0.438 -2.682,-1.319 -3.732,-2.259 -1.062,-0.936 -1.993,-1.909 -3.019,-2.614 -0.391,-0.274 -0.801,-0.493 -1.219,-0.683 -3.504,0.778 -7.282,2.037 -8.539,2.618 -2.315,1.068 -3.74,3.027 -4.274,5.698 -0.534,2.672 -8.905,9.528 -3.829,11.932 5.076,2.405 13.98,20.659 20.569,26.713 2.951,2.711 11.755,21.105 12.556,25.112 0.801,4.007 7.479,5.609 11.754,9.082 1.562,1.269 2.479,3.362 3.161,5.556 l 0.075,-0.086 6.558,-1.716 c 2.584,-3.733 5.937,-6.157 11.577,-5.089 9.884,1.87 -7.003,-8.215 -4.274,-10.952 3.487,2.699 7.071,7.129 10.828,11.293 l 2.729,-1.276 c -0.002,0.007 1.501,2.56 1.998,3.529 0.351,0.729 0.93,1.625 1.684,2.646 0.448,0.606 0.943,1.247 1.53,1.953 0.881,1.066 1.888,2.202 2.953,3.403 0.754,0.85 1.549,1.748 2.384,2.715 0.967,1.125 2.099,2.464 3.304,4.113 1.144,1.592 2.462,3.524 3.629,6.335 0.677,1.671 1.129,3.372 1.342,5.052 0.265,2.033 0.159,4.223 -0.299,6.16 -0.42,1.823 -1.176,3.641 -2.186,5.259 -0.807,1.29 -1.753,2.469 -2.808,3.501 -1.935,1.913 -3.73,3.037 -5.258,3.94 -0.419,0.248 -0.826,0.466 -1.228,0.675 l -6.437,3.069 c -3.539,1.666 -7.198,3.389 -10.732,5.109 -5.669,2.761 -9.902,4.96 -13.727,7.128 -2.207,1.255 -4.185,2.449 -5.997,3.615 -0.695,1 -1.376,2.011 -2.017,3.054 -2.907,4.752 -5.262,10.148 -5.672,15.843 -0.204,2.827 0.12,5.665 0.954,8.269 0.825,2.612 2.131,4.976 3.686,7.078 -1.018,-2.413 -1.685,-4.934 -1.853,-7.435 -0.175,-2.5 0.152,-4.955 0.888,-7.243 1.488,-4.592 4.459,-8.503 7.899,-11.929 3.461,-3.43 7.433,-6.415 11.593,-9.164 4.169,-2.745 8.543,-5.252 13.021,-7.63 4.478,-2.378 9.064,-4.625 13.71,-6.822 l 1.783,-0.846 c 0.76,-0.391 1.534,-0.817 2.329,-1.306 1.591,-1.004 3.289,-2.192 5.063,-4.15 0.875,-0.962 1.78,-2.199 2.549,-3.694 0.771,-1.494 1.392,-3.325 1.639,-5.259 0.258,-1.933 0.131,-3.894 -0.22,-5.58 -0.35,-1.7 -0.89,-3.146 -1.451,-4.367 -1.141,-2.449 -2.355,-4.174 -3.462,-5.67 -1.118,-1.488 -2.169,-2.726 -3.161,-3.873 -0.845,-0.971 -1.641,-1.866 -2.401,-2.725 3.383,2.691 10.225,6.241 11.351,5.015 1.469,-1.604 -1.077,-13.746 -4.275,-15.628 -3.339,-0.801 -4.942,-0.357 -4.942,-0.357 0,0 0.66,4.597 -2.889,6.609 1.714,-9.179 -4.439,-23.223 -6.728,-26.021 0.576,-1.097 1.208,-0.976 2.077,-0.34 4.936,3.614 7.535,18.25 7.535,18.25 18.165,-2.136 26.184,9.072 43.014,16.819 16.83,7.747 39.803,-7.42 91.628,-14.426 20.709,-2.799 111.313,8.928 126.266,14.337 8.371,3.026 30.275,9.973 44.701,7.302 14.426,-2.672 51.824,-15.494 60.907,-39.537 2.271,-6.012 4.041,-11.683 5.352,-16.899 3.762,-3.154 7.337,-6.603 10.587,-10.485 3.51,-4.214 6.593,-8.97 8.778,-14.24 2.2,-5.248 3.422,-11.017 3.413,-16.729 0.023,-5.72 -1.137,-11.302 -3.02,-16.426 -1.883,-5.138 -4.454,-9.86 -7.346,-14.227 -1.449,-2.185 -2.982,-4.285 -4.547,-6.311 l -1.178,-1.505 -0.46,-0.594 c -0.126,-0.147 -0.232,-0.33 -0.348,-0.501 -0.452,-0.705 -0.844,-1.55 -1.16,-2.475 -1.262,-3.759 -1.337,-8.431 -0.64,-12.869 0.705,-4.468 2.185,-8.891 4.471,-12.728 2.288,-3.807 5.469,-7.05 9.386,-8.47 1.944,-0.739 4.056,-0.979 6.203,-0.824 2.149,0.189 4.327,0.776 6.429,1.69 4.221,1.804 8.132,4.711 11.679,7.955 1.753,1.627 3.376,3.374 4.73,5.27 1.336,1.898 2.383,3.972 2.761,6.158 0.399,2.178 0.06,4.442 -0.882,6.551 -0.287,0.652 -0.636,1.282 -1.01,1.903 l -0.172,-0.161 c -0.338,0.403 -0.664,0.817 -0.986,1.233 -1.919,0.453 -3.847,0.883 -5.798,1.25 -2.022,0.408 -4.062,0.718 -6.117,1.246 -1.016,0.309 -2.073,0.584 -2.996,1.265 -0.941,0.666 -1.489,1.747 -1.678,2.801 -0.107,0.798 -0.122,1.583 -0.08,2.361 -1.047,1.394 -1.809,2.993 -2.177,4.672 -0.583,2.568 -0.377,5.196 0.041,7.719 -0.244,-2.546 -0.258,-5.164 0.477,-7.586 0.382,-1.289 0.993,-2.477 1.775,-3.536 0.105,0.871 0.252,1.737 0.393,2.598 -0.076,-0.955 -0.153,-1.925 -0.172,-2.885 0.642,-0.814 1.384,-1.547 2.215,-2.167 1.994,-1.478 4.336,-2.452 6.733,-3.193 0.543,-0.164 1.091,-0.315 1.641,-0.457 -0.532,0.328 -1.063,0.661 -1.582,1.012 -1.999,1.343 -3.935,2.82 -5.624,4.58 -1.674,1.747 -3.037,3.971 -3.339,6.417 -0.284,2.449 0.342,4.786 0.757,7.111 -0.244,-2.35 -0.678,-4.743 -0.231,-7.026 0.465,-2.276 1.86,-4.205 3.566,-5.745 1.721,-1.542 3.681,-2.819 5.712,-3.973 0.742,-0.424 1.506,-0.816 2.268,-1.208 -0.194,0.275 -0.386,0.552 -0.574,0.832 -2.455,2.468 -5.039,4.881 -7.225,7.705 -1.506,1.987 -2.834,4.384 -2.767,6.99 0.036,2.611 1.504,4.867 3.169,6.661 -1.561,-1.894 -2.839,-4.214 -2.714,-6.657 0.089,-2.438 1.454,-4.595 3.022,-6.424 1.247,-1.426 2.622,-2.735 4.041,-4.014 -0.628,1.268 -1.186,2.57 -1.638,3.912 -0.82,2.436 -1.306,5.005 -1.237,7.572 0.04,2.563 0.809,5.112 2.206,7.214 -1.246,-2.2 -1.806,-4.731 -1.671,-7.212 0.109,-2.487 0.751,-4.918 1.703,-7.199 0.255,-0.609 0.532,-1.205 0.827,-1.793 -0.02,0.078 -0.047,0.154 -0.066,0.233 -0.585,2.453 -0.744,5.01 -0.378,7.486 0.376,2.477 1.32,4.842 2.699,6.882 -1.23,-2.137 -1.977,-4.523 -2.167,-6.942 -0.181,-2.424 0.153,-4.854 0.877,-7.144 0.314,-0.999 0.713,-1.966 1.157,-2.911 -0.128,0.712 -0.228,1.427 -0.278,2.146 -0.176,2.55 0.143,5.114 0.906,7.512 0.761,2.404 1.908,4.654 3.31,6.707 -1.252,-2.149 -2.222,-4.455 -2.794,-6.846 -0.577,-2.391 -0.699,-4.869 -0.359,-7.263 0.342,-2.395 1.144,-4.699 2.322,-6.79 0.207,-0.362 0.436,-0.709 0.662,-1.059 0.237,-0.23 0.476,-0.458 0.708,-0.693 1.773,-1.802 3.466,-3.78 4.695,-6.149 1.238,-2.345 1.873,-5.171 1.536,-7.918 m -340.705,-21.166 c 0,0 0.004,-0.016 0.008,-0.03 -0.001,0.005 -0.007,0.017 -0.007,0.015 -0.008,0.03 -0.001,0.015 -0.001,0.015"
             style="fill:#211d1d;fill-opacity:1;fill-rule:nonzero;stroke:none"
             id="path1206" />
        </g>
      </g>
    </g>
  </g>
</svg>
